#!OML:ASF H:\Terrain\Patient Classification 1\PLAYGROUND\JustinFriday\JustinFriday.ASF
:FULLY-SPECIFIED
:DEGREES
613
root 3.18271 17.8136 12.6304 156.428 -81.9533 -147.127
lowerback 19.056 0.15637 0.952034
upperback 4.68744 0.220872 2.41567
thorax -5.61133 -0.0369269 2.00175
lowerneck -4.25842 -11.1121 -9.98247
upperneck -3.01162 -14.4885 12.1176
head 1.42349 -7.18394 4.65572
rclavicle -1.55549e-014 3.97569e-016
rhumerus 94.2021 -18.9094 -63.3663
rradius 59.3107
rwrist 5.45642
rhand -23.5127 -17.1828
rfingers 7.12502
rthumb 2.948 -47.1422
lclavicle -1.55549e-014 3.97569e-016
lhumerus 89.4538 26.5074 46.5737
lradius 60.3013
lwrist -13.4917
lhand -23.8419 -4.98456
lfingers 7.12502
lthumb 2.63004 24.979
rfemur -37.695 -0.202822 24.2727
rtibia 35.281
rfoot -10.9126 -11.2781
rtoes 1.79714
lfemur -9.69712 8.92464 -20.3004
ltibia 25.6496
lfoot -20.2111 -1.39415
ltoes 10.8466
614
root 3.08313 17.8129 12.6198 157.19 -81.8535 -147.843
lowerback 19.0646 0.253809 0.776465
upperback 4.85173 0.301592 2.46927
thorax -5.44322 -0.00191192 2.13924
lowerneck -4.45531 -11.2073 -9.82389
upperneck -2.37057 -14.6288 11.5391
head 1.59849 -7.23766 4.42265
rclavicle 5.86415e-015 1.48095e-014
rhumerus 94.7252 -19.1345 -63.749
rradius 59.9346
rwrist 5.9347
rhand -23.7743 -16.8155
rfingers 7.12502
rthumb 2.69532 -46.7782
lclavicle 5.86415e-015 1.48095e-014
lhumerus 89.2839 27.241 46.528
lradius 61.618
lwrist -13.1393
lhand -23.8856 -4.51852
lfingers 7.12502
lthumb 2.58781 25.4455
rfemur -37.8945 -0.0383076 24.4049
rtibia 34.0238
rfoot -11.0684 -10.8984
rtoes 4.29027
lfemur -9.09041 8.54484 -20.3497
ltibia 25.2022
lfoot -20.4074 -0.941055
ltoes 11.1003
615
root 2.97952 17.8158 12.6165 157.162 -81.8067 -147.62
lowerback 18.9008 0.278653 0.794265
upperback 4.94246 0.333912 2.61995
thorax -5.26101 0.0100219 2.2808
lowerneck -4.6103 -11.1646 -10.4281
upperneck -1.29694 -14.5921 11.7708
head 2.00009 -7.18749 4.53533
rclavicle -1.05356e-014 -2.31584e-014
rhumerus 94.8569 -19.446 -63.7042
rradius 61.0211
rwrist 5.99
rhand -24.133 -17.0278
rfingers 7.12502
rthumb 2.34895 -46.9946
lclavicle -1.05356e-014 -2.31584e-014
lhumerus 89.1001 27.8879 46.8624
lradius 62.8232
lwrist -13.0115
lhand -23.84 -4.15414
lfingers 7.12502
lthumb 2.63192 25.8094
rfemur -38.2398 -0.13861 24.6844
rtibia 32.8311
rfoot -11.5628 -10.3253
rtoes 5.95841
lfemur -8.61255 8.33959 -20.31
ltibia 24.6316
lfoot -20.3235 -0.714154
ltoes 12.0676
616
root 2.87626 17.8146 12.6177 160.207 -81.966 -150.539
lowerback 18.7545 0.237284 0.569486
upperback 5.13731 0.210325 2.42638
thorax -4.97139 -0.0532522 2.22673
lowerneck -4.81518 -10.9359 -10.1865
upperneck -0.910648 -14.2953 11.5177
head 2.07813 -7.02976 4.42755
rclavicle 6.11263e-015 -1.09332e-014
rhumerus 95.073 -19.7773 -64.1783
rradius 62.2453
rwrist 6.03659
rhand -24.4723 -17.088
rfingers 7.12502
rthumb 2.02124 -47.0582
lclavicle 6.11263e-015 -1.09332e-014
lhumerus 89.1042 28.7153 47.0408
lradius 64.0748
lwrist -12.9005
lhand -23.3308 -4.38979
lfingers 7.12502
lthumb 3.12362 25.5671
rfemur -38.5897 -0.477809 24.5016
rtibia 31.6035
rfoot -11.5996 -9.74626
rtoes 5.11895
lfemur -8.16628 8.44568 -20.8094
ltibia 24.1337
lfoot -20.1918 -0.813629
ltoes 13.0718
617
root 2.77626 17.81 12.6163 161.949 -82.0487 -152.105
lowerback 18.7828 0.358202 0.0285069
upperback 5.20985 0.274501 2.68819
thorax -4.91526 -0.0234356 2.80089
lowerneck -4.78206 -10.7008 -10.3663
upperneck -0.686658 -13.9652 11.0831
head 2.08205 -6.86533 4.34844
rclavicle -1.35174e-014 1.11319e-014
rhumerus 95.3134 -20.0304 -64.1168
rradius 63.3612
rwrist 5.88494
rhand -24.6401 -16.885
rfingers 7.12502
rthumb 1.85919 -46.8567
lclavicle -1.35174e-014 1.11319e-014
lhumerus 89.0771 29.4534 47.7442
lradius 65.1234
lwrist -12.9156
lhand -22.7756 -5.38348
lfingers 7.12502
lthumb 3.65981 24.5648
rfemur -38.974 -0.67985 24.5327
rtibia 30.3423
rfoot -11.4465 -9.37838
rtoes 4.90425
lfemur -7.81969 8.37764 -21.091
ltibia 23.7178
lfoot -20.1878 -0.83147
ltoes 13.5291
618
root 2.66952 17.8072 12.6108 160.507 -82.0693 -150.475
lowerback 18.4429 0.173319 0.682825
upperback 5.47485 0.110009 2.35716
thorax -4.44226 -0.113332 2.10445
lowerneck -4.69098 -10.4643 -10.0325
upperneck -0.503432 -13.6984 11.401
head 2.09726 -6.72901 4.41314
rclavicle 1.53561e-014 1.27222e-014
rhumerus 95.5687 -20.5842 -65.155
rradius 64.5378
rwrist 5.86969
rhand -24.7425 -17.2383
rfingers 7.12502
rthumb 1.76026 -47.2108
lclavicle 1.53561e-014 1.27222e-014
lhumerus 89.4298 30.1939 47.5528
lradius 66.2191
lwrist -12.5535
lhand -22.5258 -6.45837
lfingers 7.12502
lthumb 3.901 23.4857
rfemur -39.2836 -1.04353 25.1459
rtibia 29.138
rfoot -11.2753 -9.1073
rtoes 4.30879
lfemur -7.42093 8.41812 -20.8529
ltibia 23.2638
lfoot -20.0071 -0.844036
ltoes 13.4424
619
root 2.55633 17.8008 12.6032 159.22 -82.0827 -149.123
lowerback 18.4427 0.197044 0.796537
upperback 5.60391 0.150811 2.4235
thorax -4.30513 -0.0991788 2.10061
lowerneck -4.71628 -10.4414 -9.8296
upperneck -0.0390872 -13.7001 11.288
head 2.21692 -6.72143 4.3358
rclavicle -9.19379e-015 -1.94809e-014
rhumerus 95.5334 -21.117 -65.4273
rradius 65.832
rwrist 5.5518
rhand -24.7309 -17.6669
rfingers 7.12502
rthumb 1.77144 -47.6393
lclavicle -9.19379e-015 -1.94809e-014
lhumerus 89.5119 30.7306 47.8578
lradius 67.423
lwrist -12.1023
lhand -22.0696 -7.43805
lfingers 7.12502
lthumb 4.34156 22.4974
rfemur -39.4434 -1.44359 25.7129
rtibia 27.9997
rfoot -11.2927 -8.76228
rtoes 3.69749
lfemur -6.85021 8.57159 -20.6206
ltibia 22.8042
lfoot -19.6866 -0.94397
ltoes 13.1054
